<svg id="Layer_2" xmlns="http://www.w3.org/2000/svg" xmlns:xlink="http://www.w3.org/1999/xlink" viewBox="0 0 276.63 283.29"><defs><style>.cls-1{fill:url(#linear-gradient);}.cls-2{fill:url(#linear-gradient-2);}.cls-3{fill:url(#linear-gradient-3);}</style><linearGradient id="linear-gradient" x1="66.78" y1="211.55" x2="249.59" y2="128.83" gradientUnits="userSpaceOnUse"><stop offset="0" stop-color="#dd0059"/><stop offset="0.48" stop-color="#bb017c"/><stop offset="1" stop-color="#9402a6"/></linearGradient><linearGradient id="linear-gradient-2" x1="276.99" y1="268.15" x2="459.8" y2="185.43" xlink:href="#linear-gradient"/><linearGradient id="linear-gradient-3" x1="263.63" y1="238.64" x2="446.44" y2="155.92" xlink:href="#linear-gradient"/></defs><title>logo</title><circle class="cls-1" cx="75.74" cy="207.5" r="18.5"/><path class="cls-2" d="M297.5,201.5s-47.66,9.1-66.55,40.23C210,274.3,214.64,324,255.61,348c43,25.21,93.52,3.49,109.3-37.3,9-23.24,5.09-35.59,1.15-54.39l54.62-20a29.84,29.84,0,0,0,12.7-9c4.95-6.08,9.62-15.85,5.12-28.78l-83,30s-26.52-46.2,13-73.71a68.21,68.21,0,0,1,15.88-8.06L476.5,113.5s26-10,17-38L369.15,120.8a68.86,68.86,0,0,0-13.26,6.52c-15.71,10-46.69,35.91-38.39,81.18,0,0,14.91,45.7,20.52,59.87,4.47,11.29,5.15,34.07-13.39,49.24-19.23,15.73-49,15-65.2-5.05-8.81-10.92-14.68-25.07-7.85-46,4.1-12.59,14.19-20.67,25.92-26a36.59,36.59,0,0,0,18-17C302.76,209.07,297.5,201.5,297.5,201.5Z" transform="translate(-218.76 -75.5)"/><path class="cls-3" d="M365.09,203.89s-4.15-27.25,16.34-36.83S466.57,136,466.57,136s5.17,28-17.55,37S365.09,203.89,365.09,203.89Z" transform="translate(-218.76 -75.5)"/></svg>