<svg id="Layer_4" xmlns="http://www.w3.org/2000/svg" xmlns:xlink="http://www.w3.org/1999/xlink" viewBox="0 0 192 258.13"><defs><style>.cls-1{fill:url(#linear-gradient);}.cls-2{fill:#fff;}</style><linearGradient id="linear-gradient" x1="111.11" y1="266.37" x2="284.24" y2="188.02" gradientUnits="userSpaceOnUse"><stop offset="0" stop-color="#dd0059"/><stop offset="0.48" stop-color="#bb017c"/><stop offset="1" stop-color="#9402a6"/></linearGradient></defs><title>point</title><path class="cls-1" d="M186.34,108.59a96,96,0,0,0-96,96c0,53,93.19,162.13,93.19,162.13s98.81-109.11,98.81-162.13A96,96,0,0,0,186.34,108.59Z" transform="translate(-90.34 -108.59)"/><circle class="cls-2" cx="74.1" cy="119.6" r="6.47"/><path class="cls-2" d="M165.48,199.67s-16.68,3.19-23.29,14.09c-7.32,11.39-5.71,28.8,8.63,37.2a26.51,26.51,0,0,0,38.26-13.06c3.15-8.13,1.78-12.46.4-19l19.12-7a10.26,10.26,0,0,0,4.44-3.16,10,10,0,0,0,1.79-10.07l-29.05,10.5s-9.28-16.17,4.56-25.8a24.24,24.24,0,0,1,5.56-2.82l32.23-11.63s9.1-3.5,6-13.3l-43.52,15.86a23.78,23.78,0,0,0-4.64,2.28c-5.5,3.5-16.34,12.57-13.44,28.41,0,0,5.22,16,7.19,21A15.49,15.49,0,0,1,175,240.31c-6.73,5.51-17.16,5.24-22.82-1.77-3.08-3.82-5.14-8.77-2.75-16.11,1.44-4.4,5-7.23,9.07-9.11a12.74,12.74,0,0,0,6.3-5.95C167.33,202.32,165.48,199.67,165.48,199.67Z" transform="translate(-90.34 -108.59)"/><path class="cls-2" d="M189.14,200.51s-1.45-9.54,5.72-12.89,29.8-10.88,29.8-10.88,1.81,9.81-6.14,13S189.14,200.51,189.14,200.51Z" transform="translate(-90.34 -108.59)"/></svg>